<svg width="82" height="42" viewBox="0 0 82 42" fill="none" xmlns="http://www.w3.org/2000/svg">
<g filter="url(#filter0_d_8_11)">
<path d="M23.64 33.576C19.32 33.576 15.608 32.68 12.504 30.888C8.312 28.456 5.848 24.52 5.112 19.08C5.08 18.632 5.032 18.184 4.968 17.736C4.936 17.288 4.92 16.84 4.92 16.392C4.92 11.592 6.632 7.768 10.056 4.92C13.256 2.296 17.368 0.919998 22.392 0.792C22.648 0.759998 22.888 0.743998 23.112 0.743998C23.368 0.743998 23.608 0.743998 23.832 0.743998C28.504 0.743998 32.808 1.48 36.744 2.952L36.6 3.288C36.088 3.288 35.592 4.248 35.112 6.168C34.728 7.8 34.536 9.176 34.536 10.296V10.632L33.864 10.488C33.896 10.264 33.912 10.056 33.912 9.864C33.912 9.672 33.912 9.496 33.912 9.336C33.912 7.96 33.608 6.904 33 6.168C32.424 5.368 31.288 4.616 29.592 3.912C27.576 3.08 25.096 2.664 22.152 2.664C18.12 2.664 14.968 3.672 12.696 5.688C10.392 7.736 9.24 10.824 9.24 14.952C9.24 19.72 10.536 23.672 13.128 26.808C15.784 29.944 19.272 31.512 23.592 31.512C23.88 31.512 24.088 31.496 24.216 31.464C27.832 31.368 31.768 30.36 36.024 28.44V29.352C33.496 30.824 31.96 31.688 31.416 31.944C30.2 32.456 28.936 32.856 27.624 33.144C26.344 33.432 25.016 33.576 23.64 33.576ZM47.3299 28.056C47.2659 28.056 47.2499 28.024 47.2819 27.96C47.5059 26.936 47.6819 25.768 47.8099 24.456C47.9379 23.112 48.0019 21.608 48.0019 19.944V19.848C47.0419 19.848 45.9219 19.896 44.6419 19.992C43.3939 20.056 41.9699 20.168 40.3699 20.328C40.3699 20.296 40.3539 20.28 40.3219 20.28C40.3219 20.28 40.3219 20.264 40.3219 20.232C40.3219 19.976 40.5139 19.592 40.8979 19.08C41.3139 18.504 41.6499 18.248 41.9059 18.312C42.6099 18.472 43.4579 18.6 44.4499 18.696C45.4739 18.76 46.6579 18.808 48.0019 18.84C48.0019 18.616 47.9699 17.992 47.9059 16.968C47.8419 15.944 47.7459 14.504 47.6179 12.648C47.5859 12.52 47.8739 12.28 48.4819 11.928C48.7699 11.768 49.0259 11.656 49.2499 11.592C49.4739 11.496 49.6499 11.448 49.7779 11.448C49.9059 11.448 49.9699 11.512 49.9699 11.64C49.7779 12.44 49.6179 13.448 49.4899 14.664C49.3939 15.848 49.3299 17.224 49.2979 18.792L56.6899 18.408C56.7219 18.408 56.7379 18.424 56.7379 18.456C56.7379 18.68 56.5459 19.064 56.1619 19.608C55.7139 20.216 55.3779 20.472 55.1539 20.376C54.5139 20.216 53.6979 20.104 52.7059 20.04C51.7459 19.944 50.6099 19.896 49.2979 19.896C49.2979 20.408 49.3139 20.936 49.3459 21.48C49.3779 22.024 49.4259 22.568 49.4899 23.112C49.6179 24.008 49.7139 24.712 49.7779 25.224C49.8419 25.736 49.8739 26.072 49.8739 26.232C49.9059 26.328 49.5539 26.68 48.8179 27.288C48.0819 27.8 47.5859 28.056 47.3299 28.056ZM68.5643 28.056C68.5003 28.056 68.4843 28.024 68.5163 27.96C68.7403 26.936 68.9163 25.768 69.0443 24.456C69.1723 23.112 69.2363 21.608 69.2363 19.944V19.848C68.2763 19.848 67.1563 19.896 65.8763 19.992C64.6283 20.056 63.2043 20.168 61.6043 20.328C61.6043 20.296 61.5883 20.28 61.5563 20.28C61.5563 20.28 61.5563 20.264 61.5563 20.232C61.5563 19.976 61.7483 19.592 62.1323 19.08C62.5483 18.504 62.8843 18.248 63.1403 18.312C63.8443 18.472 64.6923 18.6 65.6843 18.696C66.7083 18.76 67.8923 18.808 69.2363 18.84C69.2363 18.616 69.2043 17.992 69.1403 16.968C69.0763 15.944 68.9803 14.504 68.8523 12.648C68.8203 12.52 69.1083 12.28 69.7163 11.928C70.0043 11.768 70.2603 11.656 70.4843 11.592C70.7083 11.496 70.8843 11.448 71.0123 11.448C71.1403 11.448 71.2043 11.512 71.2043 11.64C71.0123 12.44 70.8523 13.448 70.7243 14.664C70.6283 15.848 70.5643 17.224 70.5323 18.792L77.9243 18.408C77.9563 18.408 77.9723 18.424 77.9723 18.456C77.9723 18.68 77.7803 19.064 77.3963 19.608C76.9483 20.216 76.6123 20.472 76.3883 20.376C75.7483 20.216 74.9323 20.104 73.9403 20.04C72.9803 19.944 71.8443 19.896 70.5323 19.896C70.5323 20.408 70.5483 20.936 70.5803 21.48C70.6123 22.024 70.6603 22.568 70.7243 23.112C70.8523 24.008 70.9483 24.712 71.0123 25.224C71.0763 25.736 71.1083 26.072 71.1083 26.232C71.1403 26.328 70.7883 26.68 70.0523 27.288C69.3163 27.8 68.8203 28.056 68.5643 28.056Z" fill="white"/>
</g>
<defs>
<filter id="filter0_d_8_11" x="0.919998" y="0.743996" width="81.0523" height="40.832" filterUnits="userSpaceOnUse" color-interpolation-filters="sRGB">
<feFlood flood-opacity="0" result="BackgroundImageFix"/>
<feColorMatrix in="SourceAlpha" type="matrix" values="0 0 0 0 0 0 0 0 0 0 0 0 0 0 0 0 0 0 127 0" result="hardAlpha"/>
<feOffset dy="4"/>
<feGaussianBlur stdDeviation="2"/>
<feComposite in2="hardAlpha" operator="out"/>
<feColorMatrix type="matrix" values="0 0 0 0 0 0 0 0 0 0 0 0 0 0 0 0 0 0 0.25 0"/>
<feBlend mode="normal" in2="BackgroundImageFix" result="effect1_dropShadow_8_11"/>
<feBlend mode="normal" in="SourceGraphic" in2="effect1_dropShadow_8_11" result="shape"/>
</filter>
</defs>
</svg>
