<svg width="112" height="43" viewBox="0 0 112 43" fill="none" xmlns="http://www.w3.org/2000/svg">
<g filter="url(#filter0_d_8_9)">
<path d="M11.824 33.768C11.408 33.768 10.96 33.752 10.48 33.72C10.032 33.688 9.536 33.64 8.992 33.576C7.808 33.448 6.368 33.064 4.672 32.424L4.768 32.184C5.376 32.216 5.872 30.04 6.256 25.656L6.88 25.848C6.784 26.456 6.736 27.048 6.736 27.624C6.736 28.008 6.752 28.376 6.784 28.728C6.848 29.08 6.912 29.432 6.976 29.784C7.36 31.608 8.416 32.52 10.144 32.52C13.12 32.52 14.704 30.328 14.896 25.944C14.896 25.464 14.896 24.68 14.896 23.592C14.928 22.472 14.944 21.064 14.944 19.368C14.944 8.808 14.592 3.16 13.888 2.424C13.344 1.912 12.544 1.656 11.488 1.656C11.264 1.656 11.008 1.672 10.72 1.704C10.432 1.736 10.144 1.784 9.856 1.848L10.288 0.887999C11.344 1.016 13.488 1.16 16.72 1.32C18 1.256 19.2 1.192 20.32 1.128C21.472 1.032 22.56 0.935998 23.584 0.839999L22.912 1.704C22.784 1.672 22.64 1.656 22.48 1.656C22.352 1.656 22.224 1.656 22.096 1.656C20.848 1.656 19.888 2.04 19.216 2.808C18.704 3.64 18.448 6.248 18.448 10.632C18.448 12.392 18.496 14.904 18.592 18.168C18.688 21.432 18.736 23.464 18.736 24.264V25.128C18.64 28.232 18.08 30.44 17.056 31.752C16 33.096 14.256 33.768 11.824 33.768ZM20.9151 33.144L21.3471 32.136C22.1791 32.008 22.8671 31.88 23.4111 31.752C23.9551 31.624 24.3711 31.48 24.6591 31.32C25.3631 30.872 26.0191 29.928 26.6271 28.488L34.9791 7.176C35.4911 5.928 35.7471 4.888 35.7471 4.056C35.7471 3.992 35.7311 3.928 35.6991 3.864C35.6991 3.8 35.6831 3.688 35.6511 3.528C35.6191 3.464 35.6031 3.368 35.6031 3.24C35.6031 3.016 35.6991 2.808 35.8911 2.616C36.9471 1.72 37.8911 0.983999 38.7231 0.407999C39.6511 3.224 40.4991 5.8 41.2671 8.136C42.0351 10.44 42.7231 12.488 43.3311 14.28L45.2031 19.416C46.1631 22.136 46.9951 24.392 47.6991 26.184C48.4351 27.976 49.0271 29.288 49.4751 30.12C49.9231 31.016 50.7871 31.608 52.0671 31.896C52.4831 31.928 52.8831 31.96 53.2671 31.992C53.6831 32.024 54.0991 32.056 54.5151 32.088L54.0351 33.144C52.2111 33.048 50.7871 32.984 49.7631 32.952C48.7391 32.92 48.0991 32.904 47.8431 32.904C47.6191 32.904 47.2031 32.904 46.5951 32.904C45.9871 32.904 45.2191 32.936 44.2911 33L41.1711 33.144L41.5551 32.136C43.9871 32.136 45.1551 31.608 45.0591 30.552C45.0591 30.488 44.8671 29.8 44.4831 28.488C44.0991 27.144 43.4911 25.192 42.6591 22.632C42.5951 22.376 42.4511 22.248 42.2271 22.248H31.1871C30.9951 22.248 30.8511 22.376 30.7551 22.632C29.8911 24.776 29.2031 26.504 28.6911 27.816C28.2111 29.128 27.9231 30.04 27.8271 30.552C27.7951 30.584 27.7791 30.648 27.7791 30.744C27.7791 31.64 29.1071 32.088 31.7631 32.088L31.2831 33.144C30.6431 33.048 29.8911 32.984 29.0271 32.952C28.1631 32.92 27.1871 32.904 26.0991 32.904C25.0431 32.904 24.0831 32.92 23.2191 32.952C22.3871 32.984 21.6191 33.048 20.9151 33.144ZM31.8591 20.664H41.5551C41.7471 20.664 41.8431 20.6 41.8431 20.472C41.8431 20.376 41.8271 20.312 41.7951 20.28L37.0911 7.272C37.0591 7.112 37.0111 7.032 36.9471 7.032C36.8511 7.032 36.7871 7.096 36.7551 7.224L31.6671 20.28C31.6351 20.312 31.6191 20.376 31.6191 20.472C31.6191 20.6 31.6991 20.664 31.8591 20.664ZM64.7073 34.584C64.6113 34.424 64.4193 34.168 64.1313 33.816C63.8753 33.496 63.5233 33.096 63.0753 32.616C62.2753 31.688 61.7793 30.984 61.5873 30.504C61.4913 30.152 61.3633 29.704 61.2032 29.16C61.0433 28.584 60.8353 27.944 60.5793 27.24C60.2593 26.312 59.8913 25.272 59.4753 24.12C59.0913 22.936 58.6273 21.64 58.0833 20.232L54.7713 10.776C52.9153 5.624 51.7633 2.888 51.3153 2.568C50.6753 2.024 49.6673 1.752 48.2912 1.752C48.0672 1.752 47.8752 1.768 47.7152 1.8C47.5232 1.8 47.3472 1.816 47.1872 1.848L47.6192 0.887999C47.9072 0.919998 48.3552 0.951998 48.9633 0.983997C49.6033 1.016 50.4193 1.064 51.4113 1.128L54.0993 1.272C56.0513 1.272 58.3233 1.128 60.9153 0.839999L60.2913 1.896C60.2273 1.896 60.1473 1.896 60.0513 1.896C59.9553 1.864 59.8593 1.848 59.7633 1.848C59.4433 1.848 59.1073 1.88 58.7553 1.944C58.4353 2.008 58.1153 2.088 57.7953 2.184C56.9313 2.504 56.4993 2.952 56.4993 3.528C56.4993 5.672 58.2113 11.256 61.6353 20.28C61.9233 21.112 62.3073 22.168 62.7873 23.448C63.2673 24.728 63.8273 26.216 64.4673 27.912C64.6593 28.264 64.8033 28.44 64.8993 28.44C65.0273 28.44 65.1553 28.296 65.2833 28.008C65.7953 26.952 66.4673 25.4 67.2993 23.352C68.1313 21.272 69.1073 18.696 70.2273 15.624C72.6913 8.872 73.9233 4.872 73.9233 3.624C73.9233 2.44 72.9153 1.848 70.8993 1.848C70.6753 1.848 70.4673 1.864 70.2753 1.896C70.0833 1.896 69.8913 1.912 69.6993 1.944L70.3713 0.887999C70.5953 0.919998 70.9953 0.967999 71.5713 1.032C72.1473 1.064 72.8993 1.096 73.8273 1.128L76.2273 1.272C76.3553 1.24 77.1713 1.208 78.6753 1.176C79.6353 1.176 81.0273 1.08 82.8513 0.887999L82.3233 1.8C81.2353 1.8 80.1793 2.104 79.1553 2.712C77.5233 3.704 74.8673 8.616 71.1873 17.448C67.8273 25.544 65.8113 31.176 65.1393 34.344L64.7073 34.584ZM73.9776 33.144L74.4096 32.136C75.2416 32.008 75.9296 31.88 76.4736 31.752C77.0176 31.624 77.4336 31.48 77.7216 31.32C78.4256 30.872 79.0816 29.928 79.6896 28.488L88.0416 7.176C88.5536 5.928 88.8096 4.888 88.8096 4.056C88.8096 3.992 88.7936 3.928 88.7616 3.864C88.7616 3.8 88.7456 3.688 88.7136 3.528C88.6816 3.464 88.6656 3.368 88.6656 3.24C88.6656 3.016 88.7616 2.808 88.9536 2.616C90.0096 1.72 90.9536 0.983999 91.7856 0.407999C92.7136 3.224 93.5616 5.8 94.3296 8.136C95.0976 10.44 95.7856 12.488 96.3936 14.28L98.2656 19.416C99.2256 22.136 100.058 24.392 100.762 26.184C101.498 27.976 102.09 29.288 102.538 30.12C102.986 31.016 103.85 31.608 105.13 31.896C105.546 31.928 105.946 31.96 106.33 31.992C106.746 32.024 107.162 32.056 107.578 32.088L107.098 33.144C105.274 33.048 103.85 32.984 102.826 32.952C101.802 32.92 101.162 32.904 100.906 32.904C100.682 32.904 100.266 32.904 99.6576 32.904C99.0496 32.904 98.2816 32.936 97.3536 33L94.2336 33.144L94.6176 32.136C97.0496 32.136 98.2176 31.608 98.1216 30.552C98.1216 30.488 97.9296 29.8 97.5456 28.488C97.1616 27.144 96.5536 25.192 95.7216 22.632C95.6576 22.376 95.5136 22.248 95.2896 22.248H84.2496C84.0576 22.248 83.9136 22.376 83.8176 22.632C82.9536 24.776 82.2656 26.504 81.7536 27.816C81.2736 29.128 80.9856 30.04 80.8896 30.552C80.8576 30.584 80.8416 30.648 80.8416 30.744C80.8416 31.64 82.1696 32.088 84.8256 32.088L84.3456 33.144C83.7056 33.048 82.9536 32.984 82.0896 32.952C81.2256 32.92 80.2496 32.904 79.1616 32.904C78.1056 32.904 77.1456 32.92 76.2816 32.952C75.4496 32.984 74.6816 33.048 73.9776 33.144ZM84.9216 20.664H94.6176C94.8096 20.664 94.9056 20.6 94.9056 20.472C94.9056 20.376 94.8896 20.312 94.8576 20.28L90.1536 7.272C90.1216 7.112 90.0736 7.032 90.0096 7.032C89.9136 7.032 89.8496 7.096 89.8176 7.224L84.7296 20.28C84.6976 20.312 84.6816 20.376 84.6816 20.472C84.6816 20.6 84.7616 20.664 84.9216 20.664Z" fill="white"/>
</g>
<defs>
<filter id="filter0_d_8_9" x="0.671997" y="0.407997" width="110.906" height="42.176" filterUnits="userSpaceOnUse" color-interpolation-filters="sRGB">
<feFlood flood-opacity="0" result="BackgroundImageFix"/>
<feColorMatrix in="SourceAlpha" type="matrix" values="0 0 0 0 0 0 0 0 0 0 0 0 0 0 0 0 0 0 127 0" result="hardAlpha"/>
<feOffset dy="4"/>
<feGaussianBlur stdDeviation="2"/>
<feComposite in2="hardAlpha" operator="out"/>
<feColorMatrix type="matrix" values="0 0 0 0 0 0 0 0 0 0 0 0 0 0 0 0 0 0 0.25 0"/>
<feBlend mode="normal" in2="BackgroundImageFix" result="effect1_dropShadow_8_9"/>
<feBlend mode="normal" in="SourceGraphic" in2="effect1_dropShadow_8_9" result="shape"/>
</filter>
</defs>
</svg>
